# xmcd CD database file
#
# Track frame offsets:
#	150
#	4808
#	26242
#	47358
#	71703
#	90147
#	111500
#	129447
#	151963
#	174806
#	192796
#	210395
#	233081
#	239355
#
# Disc length: 3519 seconds
#
# Revision: 6
# Processed by: cddbd v1.5.2PL0 Copyright (c) Steve Scherf et al.
# Submitted via: CDex 1.70beta3
#
DISCID=a80dbd0e
DTITLE=九州男 - HB
DYEAR=2008
DGENRE=Reggae
TTITLE0=HB
TTITLE1=music♪
TTITLE2=少年⇒爾来～やっと見つけた明日～
TTITLE3=1/6000000000 feat.C&K
TTITLE4=New Birthday
TTITLE5=Destiny～九州男編～
TTITLE6=待ち合わせ。。feat.lecca
TTITLE7=dear mama
TTITLE8=裸足
TTITLE9=WORLD
TTITLE10=Come In Now ! Feat杉本恭一（LA-PPISCH）
TTITLE11=雲の上の君え（prologue）
TTITLE12=ありがとうの歌
TTITLE13=1/6000000000 feat.C&K(acoustic version)
EXTD=YEAR: 2008
EXTT0=
EXTT1=
EXTT2=
EXTT3=
EXTT4=
EXTT5=
EXTT6=
EXTT7=
EXTT8=
EXTT9=
EXTT10=
EXTT11=
EXTT12=
EXTT13=
PLAYORDER=
